<svg width="350" height="250" viewBox="0 0 350 250" xmlns="http://www.w3.org/2000/svg">
  <defs>
    <radialGradient id="cookie-gradient" cx="50%" cy="50%" r="50%" fx="50%" fy="50%">
      <stop offset="0%" stop-color="#F5E9D6" />
      <stop offset="100%" stop-color="#E6D7C3" />
    </radialGradient>
  </defs>
  
  <!-- Background -->
  <rect width="350" height="250" fill="#F5F5F5" />
  
  <!-- Cookie -->
  <circle cx="175" cy="125" r="100" fill="url(#cookie-gradient)" />
  
  <!-- Berry pieces -->
  <circle cx="140" cy="90" r="12" fill="#E91E63" />
  <circle cx="200" cy="100" r="10" fill="#9C27B0" />
  <circle cx="160" cy="150" r="11" fill="#E91E63" />
  <circle cx="210" cy="160" r="9" fill="#3F51B5" />
  <circle cx="130" cy="130" r="8" fill="#9C27B0" />
  <circle cx="180" cy="80" r="10" fill="#3F51B5" />
  <circle cx="220" cy="130" r="11" fill="#E91E63" />
  <circle cx="150" cy="110" r="9" fill="#3F51B5" />
  
  <!-- Berry juice drizzle -->
  <path d="M120,70 Q175,60 230,70 Q240,100 230,130 Q175,140 120,130 Q110,100 120,70" fill="none" stroke="#E91E63" stroke-width="3" stroke-opacity="0.6" />
  
  <!-- Berry seeds -->
  <g opacity="0.8">
    <circle cx="140" cy="90" r="1" fill="#FFF" />
    <circle cx="143" cy="93" r="1" fill="#FFF" />
    <circle cx="137" cy="87" r="1" fill="#FFF" />
    
    <circle cx="200" cy="100" r="1" fill="#FFF" />
    <circle cx="203" cy="103" r="1" fill="#FFF" />
    <circle cx="197" cy="97" r="1" fill="#FFF" />
    
    <circle cx="160" cy="150" r="1" fill="#FFF" />
    <circle cx="163" cy="153" r="1" fill="#FFF" />
    <circle cx="157" cy="147" r="1" fill="#FFF" />
    
    <circle cx="210" cy="160" r="1" fill="#FFF" />
    <circle cx="213" cy="163" r="1" fill="#FFF" />
    <circle cx="207" cy="157" r="1" fill="#FFF" />
    
    <circle cx="130" cy="130" r="1" fill="#FFF" />
    <circle cx="133" cy="133" r="1" fill="#FFF" />
    <circle cx="127" cy="127" r="1" fill="#FFF" />
    
    <circle cx="180" cy="80" r="1" fill="#FFF" />
    <circle cx="183" cy="83" r="1" fill="#FFF" />
    <circle cx="177" cy="77" r="1" fill="#FFF" />
    
    <circle cx="220" cy="130" r="1" fill="#FFF" />
    <circle cx="223" cy="133" r="1" fill="#FFF" />
    <circle cx="217" cy="127" r="1" fill="#FFF" />
  </g>
  
  <!-- Label -->
  <text x="175" y="240" font-family="Arial, sans-serif" font-size="16" font-weight="bold" text-anchor="middle" fill="#8E24AA">Ягодный вальс</text>
</svg>
