<svg width="30" height="30" viewBox="0 0 30 30" xmlns="http://www.w3.org/2000/svg">
  <path fill="white" d="M9,20 C7.35,20 6.015,21.35 6.015,23 C6.015,24.65 7.35,26 9,26 C10.65,26 12,24.65 12,23 C12,21.35 10.65,20 9,20 Z M21,20 C19.35,20 18.015,21.35 18.015,23 C18.015,24.65 19.35,26 21,26 C22.65,26 24,24.65 24,23 C24,21.35 22.65,20 21,20 Z M9.9,15.6 L19.2,15.6 C20.325,15.6 21.3,15 21.75,14.1 L25.05,7.5 C25.2,7.2 25.275,6.9 25.275,6.6 C25.275,5.7 24.525,5 23.625,5 L7.8,5 L6.9,3 L3,3 L3,5 L6,5 L9.6,12.3 L8.25,14.7 C7.65,15.75 8.4,17 9.6,17 L24,17 L24,15 L9.6,15 L9.9,15.6 Z"/>
</svg>
