<svg width="24" height="24" viewBox="0 0 24 24" fill="none" xmlns="http://www.w3.org/2000/svg">
<path d="M2 6H22V18H2V6Z" stroke="#EFA6A6" stroke-width="2" stroke-linecap="round" stroke-linejoin="round"/>
<path d="M12 14C13.6569 14 15 12.6569 15 11C15 9.34315 13.6569 8 12 8C10.3431 8 9 9.34315 9 11C9 12.6569 10.3431 14 12 14Z" stroke="#EFA6A6" stroke-width="2" stroke-linecap="round" stroke-linejoin="round"/>
<path d="M18 8C18.7956 8 19.5587 7.68393 20.1213 7.12132C20.6839 6.55871 21 5.79565 21 5" stroke="#EFA6A6" stroke-width="2" stroke-linecap="round" stroke-linejoin="round"/>
<path d="M18 14C18.7956 14 19.5587 14.3161 20.1213 14.8787C20.6839 15.4413 21 16.2044 21 17" stroke="#EFA6A6" stroke-width="2" stroke-linecap="round" stroke-linejoin="round"/>
<path d="M6 8C5.20435 8 4.44129 7.68393 3.87868 7.12132C3.31607 6.55871 3 5.79565 3 5" stroke="#EFA6A6" stroke-width="2" stroke-linecap="round" stroke-linejoin="round"/>
<path d="M6 14C5.20435 14 4.44129 14.3161 3.87868 14.8787C3.31607 15.4413 3 16.2044 3 17" stroke="#EFA6A6" stroke-width="2" stroke-linecap="round" stroke-linejoin="round"/>
</svg>
