<?xml version="1.0" encoding="UTF-8"?>
<svg width="300" height="300" viewBox="0 0 300 300" fill="none" xmlns="http://www.w3.org/2000/svg">
  <!-- Cookie base with gradient -->
  <defs>
    <radialGradient id="cookieGradient" cx="50%" cy="50%" r="50%" fx="45%" fy="45%">
      <stop offset="0%" stop-color="#E6C88A" />
      <stop offset="60%" stop-color="#D2B48C" />
      <stop offset="100%" stop-color="#C19A6B" />
    </radialGradient>
    <filter id="softShadow" x="-20%" y="-20%" width="140%" height="140%">
      <feGaussianBlur in="SourceAlpha" stdDeviation="3" />
      <feOffset dx="2" dy="2" result="offsetblur" />
      <feComponentTransfer>
        <feFuncA type="linear" slope="0.2" />
      </feComponentTransfer>
      <feMerge>
        <feMergeNode />
        <feMergeNode in="SourceGraphic" />
      </feMerge>
    </filter>
  </defs>
  
  <!-- Main cookie shape with soft shadow -->
  <circle cx="150" cy="150" r="120" fill="url(#cookieGradient)" stroke="#A67C52" stroke-width="2" filter="url(#softShadow)" />
  
  <!-- Cookie edge texture -->
  <circle cx="150" cy="150" r="118" fill="none" stroke="#8B4513" stroke-width="0.5" stroke-dasharray="3 3" opacity="0.3" />
  
  <!-- Cookie center texture -->
  <circle cx="150" cy="150" r="90" fill="none" stroke="#8B4513" stroke-width="0.5" opacity="0.2" />
  
  <!-- Chocolate chips -->
  <circle cx="110" cy="90" r="8" fill="#5D4037" opacity="0.9" />
  <circle cx="190" cy="110" r="7" fill="#5D4037" opacity="0.9" />
  <circle cx="130" cy="170" r="6" fill="#5D4037" opacity="0.9" />
  <circle cx="180" cy="190" r="7" fill="#5D4037" opacity="0.9" />
  <circle cx="90" cy="150" r="5" fill="#5D4037" opacity="0.9" />
  <circle cx="210" cy="160" r="6" fill="#5D4037" opacity="0.9" />
  <circle cx="150" cy="120" r="7" fill="#5D4037" opacity="0.9" />
  
  <!-- Cookie texture details - lighter spots -->
  <circle cx="120" cy="110" r="15" fill="#E6C88A" opacity="0.3" />
  <circle cx="170" cy="90" r="12" fill="#E6C88A" opacity="0.3" />
  <circle cx="100" cy="180" r="14" fill="#E6C88A" opacity="0.3" />
  <circle cx="200" cy="170" r="13" fill="#E6C88A" opacity="0.3" />
  <circle cx="160" cy="150" r="16" fill="#E6C88A" opacity="0.3" />
  
  <!-- Cookie texture details - darker spots -->
  <circle cx="130" cy="130" r="10" fill="#A67C52" opacity="0.2" />
  <circle cx="180" cy="140" r="8" fill="#A67C52" opacity="0.2" />
  <circle cx="110" cy="160" r="9" fill="#A67C52" opacity="0.2" />
  <circle cx="190" cy="180" r="11" fill="#A67C52" opacity="0.2" />
  
  <!-- Highlight -->
  <ellipse cx="120" cy="120" rx="40" ry="30" fill="white" opacity="0.1" />
</svg>
