<svg xmlns="http://www.w3.org/2000/svg" viewBox="0 0 1000 30">
  <circle cx="20" cy="15" r="3" fill="#F5C107"/>
  <circle cx="50" cy="8" r="2" fill="#F5C107"/>
  <circle cx="80" cy="20" r="4" fill="#F5C107"/>
  <circle cx="120" cy="10" r="3" fill="#F5C107"/>
  <circle cx="150" cy="22" r="2" fill="#F5C107"/>
  <circle cx="190" cy="12" r="3" fill="#F5C107"/>
  <circle cx="240" cy="18" r="4" fill="#F5C107"/>
  <circle cx="280" cy="8" r="2" fill="#F5C107"/>
  <circle cx="320" cy="15" r="3" fill="#F5C107"/>
  <circle cx="370" cy="22" r="4" fill="#F5C107"/>
  <circle cx="420" cy="10" r="2" fill="#F5C107"/>
  <circle cx="460" cy="20" r="3" fill="#F5C107"/>
  <circle cx="510" cy="12" r="2" fill="#F5C107"/>
  <circle cx="550" cy="8" r="4" fill="#F5C107"/>
  <circle cx="600" cy="15" r="3" fill="#F5C107"/>
  <circle cx="640" cy="22" r="2" fill="#F5C107"/>
  <circle cx="690" cy="10" r="4" fill="#F5C107"/>
  <circle cx="730" cy="15" r="3" fill="#F5C107"/>
  <circle cx="780" cy="8" r="2" fill="#F5C107"/>
  <circle cx="820" cy="20" r="4" fill="#F5C107"/>
  <circle cx="870" cy="12" r="3" fill="#F5C107"/>
  <circle cx="910" cy="22" r="2" fill="#F5C107"/>
  <circle cx="950" cy="15" r="3" fill="#F5C107"/>
  <circle cx="990" cy="8" r="4" fill="#F5C107"/>
</svg>
