<?xml version="1.0" encoding="UTF-8"?>
<svg width="300" height="300" viewBox="0 0 300 300" fill="none" xmlns="http://www.w3.org/2000/svg">
  <!-- Cookie base with gradient -->
  <defs>
    <radialGradient id="cookieGradient" cx="50%" cy="50%" r="50%" fx="45%" fy="45%">
      <stop offset="0%" stop-color="#D4BC8B" />
      <stop offset="60%" stop-color="#C3A678" />
      <stop offset="100%" stop-color="#A88D65" />
    </radialGradient>
    <filter id="softShadow" x="-20%" y="-20%" width="140%" height="140%">
      <feGaussianBlur in="SourceAlpha" stdDeviation="3" />
      <feOffset dx="2" dy="2" result="offsetblur" />
      <feComponentTransfer>
        <feFuncA type="linear" slope="0.2" />
      </feComponentTransfer>
      <feMerge>
        <feMergeNode />
        <feMergeNode in="SourceGraphic" />
      </feMerge>
    </filter>
  </defs>
  
  <!-- Main cookie shape with soft shadow -->
  <circle cx="150" cy="150" r="120" fill="url(#cookieGradient)" stroke="#A88D65" stroke-width="2" filter="url(#softShadow)" />
  
  <!-- Cookie edge texture -->
  <circle cx="150" cy="150" r="118" fill="none" stroke="#8B7355" stroke-width="0.5" stroke-dasharray="3 3" opacity="0.3" />
  
  <!-- Cookie center texture -->
  <circle cx="150" cy="150" r="90" fill="none" stroke="#8B7355" stroke-width="0.5" opacity="0.2" />
  
  <!-- Oatmeal flakes -->
  <ellipse cx="110" cy="90" rx="10" ry="6" fill="#D4BC8B" opacity="0.9" transform="rotate(30 110 90)" />
  <ellipse cx="190" cy="110" rx="9" ry="5" fill="#D4BC8B" opacity="0.9" transform="rotate(-15 190 110)" />
  <ellipse cx="130" cy="170" rx="8" ry="4" fill="#D4BC8B" opacity="0.9" transform="rotate(45 130 170)" />
  <ellipse cx="180" cy="190" rx="9" ry="5" fill="#D4BC8B" opacity="0.9" transform="rotate(10 180 190)" />
  <ellipse cx="90" cy="150" rx="7" ry="4" fill="#D4BC8B" opacity="0.9" transform="rotate(-25 90 150)" />
  <ellipse cx="210" cy="160" rx="8" ry="5" fill="#D4BC8B" opacity="0.9" transform="rotate(60 210 160)" />
  <ellipse cx="150" cy="120" rx="9" ry="5" fill="#D4BC8B" opacity="0.9" transform="rotate(-5 150 120)" />
  
  <!-- Cookie texture details - lighter spots -->
  <circle cx="120" cy="110" r="15" fill="#D4BC8B" opacity="0.3" />
  <circle cx="170" cy="90" r="12" fill="#D4BC8B" opacity="0.3" />
  <circle cx="100" cy="180" r="14" fill="#D4BC8B" opacity="0.3" />
  <circle cx="200" cy="170" r="13" fill="#D4BC8B" opacity="0.3" />
  <circle cx="160" cy="150" r="16" fill="#D4BC8B" opacity="0.3" />
  
  <!-- Cookie texture details - darker spots -->
  <circle cx="130" cy="130" r="10" fill="#A88D65" opacity="0.2" />
  <circle cx="180" cy="140" r="8" fill="#A88D65" opacity="0.2" />
  <circle cx="110" cy="160" r="9" fill="#A88D65" opacity="0.2" />
  <circle cx="190" cy="180" r="11" fill="#A88D65" opacity="0.2" />
  
  <!-- Highlight -->
  <ellipse cx="120" cy="120" rx="40" ry="30" fill="white" opacity="0.1" />
</svg>
