<?xml version="1.0" encoding="UTF-8"?>
<svg width="300" height="300" viewBox="0 0 300 300" fill="none" xmlns="http://www.w3.org/2000/svg">
  <!-- Cookie base with gradient -->
  <defs>
    <radialGradient id="cookieGradient" cx="50%" cy="50%" r="50%" fx="45%" fy="45%">
      <stop offset="0%" stop-color="#F7F0E0" />
      <stop offset="60%" stop-color="#EADDCA" />
      <stop offset="100%" stop-color="#D6C29F" />
    </radialGradient>
    <filter id="softShadow" x="-20%" y="-20%" width="140%" height="140%">
      <feGaussianBlur in="SourceAlpha" stdDeviation="3" />
      <feOffset dx="2" dy="2" result="offsetblur" />
      <feComponentTransfer>
        <feFuncA type="linear" slope="0.2" />
      </feComponentTransfer>
      <feMerge>
        <feMergeNode />
        <feMergeNode in="SourceGraphic" />
      </feMerge>
    </filter>
  </defs>
  
  <!-- Main cookie shape with soft shadow -->
  <circle cx="150" cy="150" r="120" fill="url(#cookieGradient)" stroke="#C4B08C" stroke-width="3" filter="url(#softShadow)" />
  
  <!-- Cookie edge texture -->
  <circle cx="150" cy="150" r="118" fill="none" stroke="#C5B8A5" stroke-width="0.5" stroke-dasharray="3 3" opacity="0.3" />
  
  <!-- Cookie center texture -->
  <circle cx="150" cy="150" r="90" fill="none" stroke="#C5B8A5" stroke-width="0.5" opacity="0.2" />
  
  <!-- Almond pieces - более заметные -->
  <ellipse cx="110" cy="90" rx="12" ry="6" fill="#E6D0B1" stroke="#C4B08C" stroke-width="1" opacity="1" transform="rotate(30 110 90)" />
  <ellipse cx="190" cy="110" rx="11" ry="5.5" fill="#E6D0B1" stroke="#C4B08C" stroke-width="1" opacity="1" transform="rotate(-15 190 110)" />
  <ellipse cx="130" cy="170" rx="10" ry="5" fill="#E6D0B1" stroke="#C4B08C" stroke-width="1" opacity="1" transform="rotate(45 130 170)" />
  <ellipse cx="180" cy="190" rx="11" ry="5.5" fill="#E6D0B1" stroke="#C4B08C" stroke-width="1" opacity="1" transform="rotate(10 180 190)" />
  <ellipse cx="90" cy="150" rx="9" ry="4.5" fill="#E6D0B1" stroke="#C4B08C" stroke-width="1" opacity="1" transform="rotate(-25 90 150)" />
  <ellipse cx="210" cy="160" rx="10" ry="5" fill="#E6D0B1" stroke="#C4B08C" stroke-width="1" opacity="1" transform="rotate(60 210 160)" />
  <ellipse cx="150" cy="120" rx="11" ry="5.5" fill="#E6D0B1" stroke="#C4B08C" stroke-width="1" opacity="1" transform="rotate(-5 150 120)" />
  <!-- Дополнительные кусочки миндаля -->
  <ellipse cx="70" cy="110" rx="10" ry="5" fill="#E6D0B1" stroke="#C4B08C" stroke-width="1" opacity="1" transform="rotate(15 70 110)" />
  <ellipse cx="160" cy="80" rx="9" ry="4.5" fill="#E6D0B1" stroke="#C4B08C" stroke-width="1" opacity="1" transform="rotate(-10 160 80)" />
  <ellipse cx="120" cy="200" rx="11" ry="5.5" fill="#E6D0B1" stroke="#C4B08C" stroke-width="1" opacity="1" transform="rotate(20 120 200)" />
  
  <!-- Cookie texture details - lighter spots -->
  <circle cx="120" cy="110" r="15" fill="#F5EFE0" opacity="0.3" />
  <circle cx="170" cy="90" r="12" fill="#F5EFE0" opacity="0.3" />
  <circle cx="100" cy="180" r="14" fill="#F5EFE0" opacity="0.3" />
  <circle cx="200" cy="170" r="13" fill="#F5EFE0" opacity="0.3" />
  <circle cx="160" cy="150" r="16" fill="#F5EFE0" opacity="0.3" />
  
  <!-- Cookie texture details - darker spots -->
  <circle cx="130" cy="130" r="10" fill="#D8C9B1" opacity="0.2" />
  <circle cx="180" cy="140" r="8" fill="#D8C9B1" opacity="0.2" />
  <circle cx="110" cy="160" r="9" fill="#D8C9B1" opacity="0.2" />
  <circle cx="190" cy="180" r="11" fill="#D8C9B1" opacity="0.2" />
  
  <!-- Highlight -->
  <ellipse cx="120" cy="120" rx="40" ry="30" fill="white" opacity="0.1" />
</svg>
