<svg width="100" height="100" viewBox="0 0 100 100" xmlns="http://www.w3.org/2000/svg">
  <defs>
    <linearGradient id="fresh-gradient" x1="0%" y1="0%" x2="100%" y2="100%">
      <stop offset="0%" stop-color="#4FC3F7" />
      <stop offset="100%" stop-color="#29B6F6" />
    </linearGradient>
  </defs>
  
  <!-- Background circle -->
  <circle cx="50" cy="50" r="48" fill="#E1F5FE" stroke="#B3E5FC" stroke-width="2" />
  
  <!-- Water droplet -->
  <path d="M50,20 Q65,40 65,60 Q65,75 50,75 Q35,75 35,60 Q35,40 50,20 Z" fill="url(#fresh-gradient)" />
  
  <!-- Droplet highlight -->
  <path d="M45,30 Q55,45 55,60 Q55,67 50,67 Q45,67 45,60 Q45,45 45,30 Z" fill="#FFFFFF" opacity="0.3" />
  
  <!-- Small droplets -->
  <path d="M25,40 Q30,45 30,52 Q30,57 25,57 Q20,57 20,52 Q20,45 25,40 Z" fill="#81D4FA" />
  <path d="M75,40 Q80,45 80,52 Q80,57 75,57 Q70,57 70,52 Q70,45 75,40 Z" fill="#81D4FA" />
  
  <!-- Fresh text -->
  <text x="50" y="90" font-family="Arial, sans-serif" font-size="10" font-weight="bold" text-anchor="middle" fill="#0288D1">СВЕЖЕСТЬ</text>
</svg>
