<svg width="1920" height="1080" viewBox="0 0 1920 1080" xmlns="http://www.w3.org/2000/svg">
  <!-- Background gradient -->
  <defs>
    <linearGradient id="bg-gradient" x1="0%" y1="0%" x2="100%" y2="100%">
      <stop offset="0%" stop-color="#3C2F2F" />
      <stop offset="100%" stop-color="#2A1F1F" />
    </linearGradient>
    <radialGradient id="cookie-gradient" cx="50%" cy="50%" r="50%" fx="50%" fy="50%">
      <stop offset="0%" stop-color="#F5C107" />
      <stop offset="100%" stop-color="#D4A017" />
    </radialGradient>
  </defs>
  
  <!-- Background -->
  <rect width="1920" height="1080" fill="url(#bg-gradient)" />
  
  <!-- Cookie pattern -->
  <g opacity="0.15">
    <!-- Row 1 -->
    <circle cx="200" cy="150" r="80" fill="url(#cookie-gradient)" />
    <circle cx="450" cy="150" r="60" fill="url(#cookie-gradient)" />
    <circle cx="700" cy="150" r="70" fill="url(#cookie-gradient)" />
    <circle cx="950" cy="150" r="80" fill="url(#cookie-gradient)" />
    <circle cx="1200" cy="150" r="60" fill="url(#cookie-gradient)" />
    <circle cx="1450" cy="150" r="70" fill="url(#cookie-gradient)" />
    <circle cx="1700" cy="150" r="80" fill="url(#cookie-gradient)" />
    
    <!-- Row 2 -->
    <circle cx="320" cy="350" r="70" fill="url(#cookie-gradient)" />
    <circle cx="570" cy="350" r="80" fill="url(#cookie-gradient)" />
    <circle cx="820" cy="350" r="60" fill="url(#cookie-gradient)" />
    <circle cx="1070" cy="350" r="70" fill="url(#cookie-gradient)" />
    <circle cx="1320" cy="350" r="80" fill="url(#cookie-gradient)" />
    <circle cx="1570" cy="350" r="60" fill="url(#cookie-gradient)" />
    <circle cx="1820" cy="350" r="70" fill="url(#cookie-gradient)" />
    
    <!-- Row 3 -->
    <circle cx="200" cy="550" r="60" fill="url(#cookie-gradient)" />
    <circle cx="450" cy="550" r="70" fill="url(#cookie-gradient)" />
    <circle cx="700" cy="550" r="80" fill="url(#cookie-gradient)" />
    <circle cx="950" cy="550" r="60" fill="url(#cookie-gradient)" />
    <circle cx="1200" cy="550" r="70" fill="url(#cookie-gradient)" />
    <circle cx="1450" cy="550" r="80" fill="url(#cookie-gradient)" />
    <circle cx="1700" cy="550" r="60" fill="url(#cookie-gradient)" />
    
    <!-- Row 4 -->
    <circle cx="320" cy="750" r="80" fill="url(#cookie-gradient)" />
    <circle cx="570" cy="750" r="60" fill="url(#cookie-gradient)" />
    <circle cx="820" cy="750" r="70" fill="url(#cookie-gradient)" />
    <circle cx="1070" cy="750" r="80" fill="url(#cookie-gradient)" />
    <circle cx="1320" cy="750" r="60" fill="url(#cookie-gradient)" />
    <circle cx="1570" cy="750" r="70" fill="url(#cookie-gradient)" />
    <circle cx="1820" cy="750" r="80" fill="url(#cookie-gradient)" />
    
    <!-- Row 5 -->
    <circle cx="200" cy="950" r="70" fill="url(#cookie-gradient)" />
    <circle cx="450" cy="950" r="80" fill="url(#cookie-gradient)" />
    <circle cx="700" cy="950" r="60" fill="url(#cookie-gradient)" />
    <circle cx="950" cy="950" r="70" fill="url(#cookie-gradient)" />
    <circle cx="1200" cy="950" r="80" fill="url(#cookie-gradient)" />
    <circle cx="1450" cy="950" r="60" fill="url(#cookie-gradient)" />
    <circle cx="1700" cy="950" r="70" fill="url(#cookie-gradient)" />
  </g>
  
  <!-- Large featured cookie -->
  <circle cx="960" cy="540" r="250" fill="url(#cookie-gradient)" opacity="0.4" />
  
  <!-- Cookie texture -->
  <g opacity="0.6">
    <circle cx="860" cy="440" r="20" fill="#3C2F2F" />
    <circle cx="920" cy="500" r="25" fill="#3C2F2F" />
    <circle cx="1000" cy="460" r="15" fill="#3C2F2F" />
    <circle cx="1060" cy="520" r="20" fill="#3C2F2F" />
    <circle cx="900" cy="580" r="18" fill="#3C2F2F" />
    <circle cx="980" cy="620" r="22" fill="#3C2F2F" />
    <circle cx="1040" cy="580" r="17" fill="#3C2F2F" />
  </g>
  
  <!-- Overlay for text readability -->
  <rect width="1920" height="1080" fill="#000000" opacity="0.3" />
</svg>
