<svg width="50" height="50" viewBox="0 0 50 50" xmlns="http://www.w3.org/2000/svg">
  <path fill="#8BC34A" d="M25,2 C12.85,2 3,11.85 3,24 C3,36.15 12.85,46 25,46 C37.15,46 47,36.15 47,24 C47,11.85 37.15,2 25,2 Z M14,36.45 C10.05,33.4 7.5,29 7.5,24 C7.5,19 10.05,14.6 14,11.55 L14,36.45 Z M25,41.5 C22.35,41.5 19.85,40.9 17.6,39.85 L17.6,8.15 C19.85,7.1 22.35,6.5 25,6.5 C33.7,6.5 40.75,13.55 40.75,22.25 C40.75,33.05 33.7,41.5 25,41.5 Z"/>
  <path fill="#8BC34A" d="M30.25,14.5 C28.5,14.5 27,15.25 26,16.5 C25,15.25 23.5,14.5 21.75,14.5 C18.6,14.5 16,17.1 16,20.25 C16,24.35 20,27.75 26,33.25 C32,27.75 36,24.35 36,20.25 C36,17.1 33.4,14.5 30.25,14.5 Z"/>
</svg>
