<svg width="50" height="50" viewBox="0 0 50 50" xmlns="http://www.w3.org/2000/svg">
  <path fill="#FF5722" d="M45,20 L40,20 L40,15 L30,15 L30,35 L45,35 L45,20 Z M42.5,31.25 C41.25,31.25 40.25,30.25 40.25,29 C40.25,27.75 41.25,26.75 42.5,26.75 C43.75,26.75 44.75,27.75 44.75,29 C44.75,30.25 43.75,31.25 42.5,31.25 Z"/>
  <path fill="#FF5722" d="M30,35 L10,35 L10,10 L30,10 L30,35 Z"/>
  <path fill="#FF5722" d="M17.5,31.25 C16.25,31.25 15.25,30.25 15.25,29 C15.25,27.75 16.25,26.75 17.5,26.75 C18.75,26.75 19.75,27.75 19.75,29 C19.75,30.25 18.75,31.25 17.5,31.25 Z"/>
  <path fill="white" d="M22.5,20 L17.5,20 L17.5,15 L22.5,15 L22.5,20 Z M22.5,27.5 L17.5,27.5 L17.5,22.5 L22.5,22.5 L22.5,27.5 Z M30,20 L25,20 L25,15 L30,15 L30,20 Z M15,20 L10,20 L10,15 L15,15 L15,20 Z M15,27.5 L10,27.5 L10,22.5 L15,22.5 L15,27.5 Z"/>
</svg>
