<svg width="30" height="30" viewBox="0 0 30 30" xmlns="http://www.w3.org/2000/svg">
  <path fill="white" d="M15,3 C10.5,3 9.9,3.015 8.4,3.075 C6.9,3.15 5.85,3.375 4.95,3.75 C4.05,4.125 3.225,4.65 2.475,5.4 C1.725,6.15 1.2,6.9 0.825,7.875 C0.45,8.775 0.225,9.825 0.15,11.325 C0.075,12.825 0.075,13.425 0.075,17.925 C0.075,22.425 0.09,23.025 0.15,24.525 C0.225,26.025 0.45,27.075 0.825,27.975 C1.2,28.875 1.725,29.7 2.475,30.45 C3.225,31.2 4.05,31.725 4.95,32.1 C5.85,32.475 6.9,32.7 8.4,32.775 C9.9,32.85 10.5,32.85 15,32.85 C19.5,32.85 20.1,32.835 21.6,32.775 C23.1,32.7 24.15,32.475 25.05,32.1 C25.95,31.725 26.775,31.2 27.525,30.45 C28.275,29.7 28.8,28.875 29.175,27.975 C29.55,27.075 29.775,26.025 29.85,24.525 C29.925,23.025 29.925,22.425 29.925,17.925 C29.925,13.425 29.91,12.825 29.85,11.325 C29.775,9.825 29.55,8.775 29.175,7.875 C28.8,6.975 28.275,6.15 27.525,5.4 C26.775,4.65 25.95,4.125 25.05,3.75 C24.15,3.375 23.1,3.15 21.6,3.075 C20.1,3 19.5,3 15,3 Z M15,5.85 C19.425,5.85 19.95,5.865 21.45,5.925 C22.8,5.985 23.55,6.195 24.075,6.375 C24.75,6.6 25.25,6.9 25.725,7.35 C26.175,7.8 26.475,8.325 26.7,8.985 C26.85,9.51 27.075,10.275 27.15,11.625 C27.225,13.125 27.225,13.65 27.225,18.075 C27.225,22.5 27.21,23.025 27.15,24.525 C27.09,25.875 26.88,26.625 26.7,27.15 C26.475,27.825 26.175,28.325 25.725,28.8 C25.275,29.25 24.75,29.55 24.09,29.775 C23.565,29.925 22.8,30.15 21.45,30.225 C19.95,30.3 19.425,30.3 15,30.3 C10.575,30.3 10.05,30.285 8.55,30.225 C7.2,30.165 6.45,29.955 5.925,29.775 C5.25,29.55 4.75,29.25 4.275,28.8 C3.825,28.35 3.525,27.825 3.3,27.165 C3.15,26.64 2.925,25.875 2.85,24.525 C2.775,23.025 2.775,22.5 2.775,18.075 C2.775,13.65 2.79,13.125 2.85,11.625 C2.91,10.275 3.12,9.525 3.3,9 C3.525,8.325 3.825,7.825 4.275,7.35 C4.725,6.9 5.25,6.6 5.91,6.375 C6.435,6.225 7.2,6 8.55,5.925 C10.05,5.85 10.575,5.85 15,5.85 Z"/>
  <path fill="white" d="M15,21.75 C12.9,21.75 11.25,20.1 11.25,18 C11.25,15.9 12.9,14.25 15,14.25 C17.1,14.25 18.75,15.9 18.75,18 C18.75,20.1 17.1,21.75 15,21.75 Z M15,11.4 C11.325,11.4 8.325,14.325 8.325,18.075 C8.325,21.825 11.25,24.75 15,24.75 C18.75,24.75 21.675,21.825 21.675,18.075 C21.675,14.325 18.675,11.4 15,11.4 Z"/>
  <circle fill="white" cx="21.9" cy="11.1" r="1.5"/>
</svg>
