<svg width="50" height="50" viewBox="0 0 50 50" xmlns="http://www.w3.org/2000/svg">
  <!-- Mini Oatmeal Cookie -->
  <defs>
    <radialGradient id="cookieGradient" cx="50%" cy="50%" r="50%" fx="45%" fy="45%">
      <stop offset="0%" stop-color="#E6D0B1" />
      <stop offset="60%" stop-color="#D6C29F" />
      <stop offset="100%" stop-color="#C4B08C" />
    </radialGradient>
    <filter id="softShadow" x="-20%" y="-20%" width="140%" height="140%">
      <feGaussianBlur in="SourceAlpha" stdDeviation="1" />
      <feOffset dx="1" dy="1" result="offsetblur" />
      <feComponentTransfer>
        <feFuncA type="linear" slope="0.5" />
      </feComponentTransfer>
      <feMerge>
        <feMergeNode />
        <feMergeNode in="SourceGraphic" />
      </feMerge>
    </filter>
  </defs>
  
  <!-- Main cookie shape with soft shadow -->
  <circle cx="25" cy="25" r="20" fill="url(#cookieGradient)" stroke="#C4B08C" stroke-width="1" filter="url(#softShadow)" />
  
  <!-- Oatmeal texture -->
  <ellipse cx="18" cy="15" rx="2" ry="1" fill="#D6C29F" stroke="#C4B08C" stroke-width="0.5" transform="rotate(30 18 15)" />
  <ellipse cx="32" cy="18" rx="2" ry="1" fill="#D6C29F" stroke="#C4B08C" stroke-width="0.5" transform="rotate(-15 32 18)" />
  <ellipse cx="22" cy="28" rx="2" ry="1" fill="#D6C29F" stroke="#C4B08C" stroke-width="0.5" transform="rotate(45 22 28)" />
  <ellipse cx="30" cy="32" rx="1.5" ry="0.8" fill="#D6C29F" stroke="#C4B08C" stroke-width="0.5" transform="rotate(10 30 32)" />
  <ellipse cx="15" cy="25" rx="1.5" ry="0.8" fill="#D6C29F" stroke="#C4B08C" stroke-width="0.5" transform="rotate(-25 15 25)" />
  <ellipse cx="25" cy="15" rx="1.5" ry="0.8" fill="#D6C29F" stroke="#C4B08C" stroke-width="0.5" transform="rotate(60 25 15)" />
  <ellipse cx="25" cy="35" rx="1.5" ry="0.8" fill="#D6C29F" stroke="#C4B08C" stroke-width="0.5" transform="rotate(20 25 35)" />
</svg>
