<svg width="60" height="60" viewBox="0 0 60 60" fill="none" xmlns="http://www.w3.org/2000/svg">
  <rect width="60" height="60" rx="30" fill="#FFF5E6"/>
  <path d="M30 15C23.25 15 17.5 19.4 17.5 25C17.5 28.65 19.5 31.85 22.75 33.8V37.5L27.5 35L32.5 37.5V33.8C35.75 31.85 37.75 28.65 37.75 25C37.75 19.4 36.75 15 30 15Z" fill="#F5C107"/>
  <path d="M42.5 42.5H17.5C16.12 42.5 15 43.62 15 45V47.5H45V45C45 43.62 43.88 42.5 42.5 42.5Z" fill="#EFA6A6"/>
  <path d="M30 40C36.9036 40 42.5 34.4036 42.5 27.5C42.5 20.5964 36.9036 15 30 15C23.0964 15 17.5 20.5964 17.5 27.5C17.5 34.4036 23.0964 40 30 40Z" stroke="#333333" stroke-width="2" stroke-linecap="round" stroke-linejoin="round"/>
  <path d="M30 22.5V28.75" stroke="#333333" stroke-width="2" stroke-linecap="round" stroke-linejoin="round"/>
  <path d="M30 33.75C30.6904 33.75 31.25 33.1904 31.25 32.5C31.25 31.8096 30.6904 31.25 30 31.25C29.3096 31.25 28.75 31.8096 28.75 32.5C28.75 33.1904 29.3096 33.75 30 33.75Z" fill="#333333"/>
  <path d="M15 45H45" stroke="#333333" stroke-width="2" stroke-linecap="round" stroke-linejoin="round"/>
</svg>
