<svg width="60" height="60" viewBox="0 0 60 60" fill="none" xmlns="http://www.w3.org/2000/svg">
  <rect width="60" height="60" rx="30" fill="#FFF5E6"/>
  <path d="M42.5 25H17.5C16.1193 25 15 26.1193 15 27.5V42.5C15 43.8807 16.1193 45 17.5 45H42.5C43.8807 45 45 43.8807 45 42.5V27.5C45 26.1193 43.8807 25 42.5 25Z" fill="#F5C107"/>
  <path d="M22.5 25V20C22.5 18.3431 23.1585 16.7531 24.3306 15.5809C25.5027 14.4086 27.0925 13.75 28.75 13.75H31.25C32.9075 13.75 34.4973 14.4086 35.6694 15.5809C36.8415 16.7531 37.5 18.3431 37.5 20V25" stroke="#333333" stroke-width="2" stroke-linecap="round" stroke-linejoin="round"/>
  <path d="M42.5 25H17.5C16.1193 25 15 26.1193 15 27.5V42.5C15 43.8807 16.1193 45 17.5 45H42.5C43.8807 45 45 43.8807 45 42.5V27.5C45 26.1193 43.8807 25 42.5 25Z" stroke="#333333" stroke-width="2" stroke-linecap="round" stroke-linejoin="round"/>
  <path d="M30 35C31.3807 35 32.5 33.8807 32.5 32.5C32.5 31.1193 31.3807 30 30 30C28.6193 30 27.5 31.1193 27.5 32.5C27.5 33.8807 28.6193 35 30 35Z" fill="#EFA6A6" stroke="#333333" stroke-width="2" stroke-linecap="round" stroke-linejoin="round"/>
  <path d="M33.75 40H26.25L26.7625 36.7375C26.8837 36.0704 27.2572 35.4756 27.8069 35.0648C28.3567 34.6541 29.0414 34.4547 29.7375 34.5L30.2625 34.5C30.9586 34.4547 31.6433 34.6541 32.1931 35.0648C32.7428 35.4756 33.1163 36.0704 33.2375 36.7375L33.75 40Z" fill="#EFA6A6" stroke="#333333" stroke-width="2" stroke-linecap="round" stroke-linejoin="round"/>
</svg>
