<svg width="600" height="400" viewBox="0 0 600 400" xmlns="http://www.w3.org/2000/svg">
  <defs>
    <linearGradient id="cookie-gradient-1" x1="0%" y1="0%" x2="100%" y2="100%">
      <stop offset="0%" stop-color="#F5E9D6" />
      <stop offset="100%" stop-color="#E6D7C3" />
    </linearGradient>
    <linearGradient id="cookie-gradient-2" x1="0%" y1="0%" x2="100%" y2="100%">
      <stop offset="0%" stop-color="#5D4037" />
      <stop offset="100%" stop-color="#4E342E" />
    </linearGradient>
    <linearGradient id="table-gradient" x1="0%" y1="0%" x2="100%" y2="100%">
      <stop offset="0%" stop-color="#A1887F" />
      <stop offset="100%" stop-color="#8D6E63" />
    </linearGradient>
  </defs>
  
  <!-- Background -->
  <rect width="600" height="400" fill="#F5F5F5" />
  
  <!-- Table -->
  <rect y="300" width="600" height="100" fill="url(#table-gradient)" />
  
  <!-- Cookie halves -->
  <circle cx="250" cy="200" r="100" fill="url(#cookie-gradient-1)" />
  <path d="M250,100 A100,100 0 0,1 350,200 L250,200 Z" fill="url(#cookie-gradient-1)" />
  <path d="M250,200 A100,100 0 0,1 150,300 L250,300 Z" fill="url(#cookie-gradient-1)" />
  <path d="M250,300 A100,100 0 0,1 350,200 L250,200 Z" fill="url(#cookie-gradient-1)" />
  
  <!-- Break line -->
  <path d="M150,200 L350,200" stroke="#E6D7C3" stroke-width="2" stroke-dasharray="5,5" />
  
  <!-- Chocolate cookie half -->
  <circle cx="450" cy="200" r="100" fill="url(#cookie-gradient-2)" />
  <path d="M450,100 A100,100 0 0,1 550,200 L450,200 Z" fill="url(#cookie-gradient-2)" />
  <path d="M450,200 A100,100 0 0,1 350,300 L450,300 Z" fill="url(#cookie-gradient-2)" />
  <path d="M450,300 A100,100 0 0,1 550,200 L450,200 Z" fill="url(#cookie-gradient-2)" />
  
  <!-- Break line -->
  <path d="M350,200 L550,200" stroke="#4E342E" stroke-width="2" stroke-dasharray="5,5" />
  
  <!-- Cookie texture details - vanilla cookie -->
  <g opacity="0.8">
    <circle cx="200" cy="150" r="8" fill="#D7CCC8" />
    <circle cx="230" cy="170" r="6" fill="#D7CCC8" />
    <circle cx="210" cy="190" r="7" fill="#D7CCC8" />
    <circle cx="240" cy="130" r="5" fill="#D7CCC8" />
    <circle cx="270" cy="160" r="6" fill="#D7CCC8" />
    <circle cx="290" cy="180" r="8" fill="#D7CCC8" />
    <circle cx="260" cy="190" r="7" fill="#D7CCC8" />
    
    <circle cx="200" cy="250" r="8" fill="#D7CCC8" />
    <circle cx="230" cy="270" r="6" fill="#D7CCC8" />
    <circle cx="210" cy="230" r="7" fill="#D7CCC8" />
    <circle cx="240" cy="240" r="5" fill="#D7CCC8" />
    <circle cx="270" cy="260" r="6" fill="#D7CCC8" />
    <circle cx="290" cy="230" r="8" fill="#D7CCC8" />
    <circle cx="260" cy="250" r="7" fill="#D7CCC8" />
  </g>
  
  <!-- Cookie texture details - chocolate cookie -->
  <g opacity="0.8">
    <circle cx="400" cy="150" r="8" fill="#3E2723" />
    <circle cx="430" cy="170" r="6" fill="#3E2723" />
    <circle cx="410" cy="190" r="7" fill="#3E2723" />
    <circle cx="440" cy="130" r="5" fill="#3E2723" />
    <circle cx="470" cy="160" r="6" fill="#3E2723" />
    <circle cx="490" cy="180" r="8" fill="#3E2723" />
    <circle cx="460" cy="190" r="7" fill="#3E2723" />
    
    <circle cx="400" cy="250" r="8" fill="#3E2723" />
    <circle cx="430" cy="270" r="6" fill="#3E2723" />
    <circle cx="410" cy="230" r="7" fill="#3E2723" />
    <circle cx="440" cy="240" r="5" fill="#3E2723" />
    <circle cx="470" cy="260" r="6" fill="#3E2723" />
    <circle cx="490" cy="230" r="8" fill="#3E2723" />
    <circle cx="460" cy="250" r="7" fill="#3E2723" />
  </g>
  
  <!-- Chocolate chips - vanilla cookie -->
  <g>
    <circle cx="220" cy="160" r="5" fill="#5D4037" />
    <circle cx="250" cy="140" r="4" fill="#5D4037" />
    <circle cx="280" cy="170" r="5" fill="#5D4037" />
    <circle cx="230" cy="190" r="4" fill="#5D4037" />
    <circle cx="260" cy="150" r="5" fill="#5D4037" />
    
    <circle cx="220" cy="240" r="5" fill="#5D4037" />
    <circle cx="250" cy="260" r="4" fill="#5D4037" />
    <circle cx="280" cy="230" r="5" fill="#5D4037" />
    <circle cx="230" cy="270" r="4" fill="#5D4037" />
    <circle cx="260" cy="250" r="5" fill="#5D4037" />
  </g>
  
  <!-- White chocolate chips - chocolate cookie -->
  <g>
    <circle cx="420" cy="160" r="5" fill="#FFFDE7" />
    <circle cx="450" cy="140" r="4" fill="#FFFDE7" />
    <circle cx="480" cy="170" r="5" fill="#FFFDE7" />
    <circle cx="430" cy="190" r="4" fill="#FFFDE7" />
    <circle cx="460" cy="150" r="5" fill="#FFFDE7" />
    
    <circle cx="420" cy="240" r="5" fill="#FFFDE7" />
    <circle cx="450" cy="260" r="4" fill="#FFFDE7" />
    <circle cx="480" cy="230" r="5" fill="#FFFDE7" />
    <circle cx="430" cy="270" r="4" fill="#FFFDE7" />
    <circle cx="460" cy="250" r="5" fill="#FFFDE7" />
  </g>
  
  <!-- Crumbs scattered around -->
  <g opacity="0.9">
    <circle cx="150" cy="320" r="3" fill="#E6D7C3" />
    <circle cx="170" cy="330" r="2" fill="#E6D7C3" />
    <circle cx="190" cy="325" r="4" fill="#E6D7C3" />
    <circle cx="210" cy="335" r="3" fill="#E6D7C3" />
    <circle cx="230" cy="320" r="2" fill="#E6D7C3" />
    
    <circle cx="350" cy="320" r="3" fill="#4E342E" />
    <circle cx="370" cy="330" r="2" fill="#4E342E" />
    <circle cx="390" cy="325" r="4" fill="#4E342E" />
    <circle cx="410" cy="335" r="3" fill="#4E342E" />
    <circle cx="430" cy="320" r="2" fill="#4E342E" />
  </g>
</svg>
