<?xml version="1.0" encoding="UTF-8"?>
<svg width="400" height="400" viewBox="0 0 400 400" fill="none" xmlns="http://www.w3.org/2000/svg">
  <!-- Background -->
  <rect width="400" height="400" rx="20" fill="#FFF9E6"/>
  
  <!-- Mixing bowl -->
  <ellipse cx="200" cy="240" rx="120" ry="60" fill="#E6E6E6" stroke="#CCCCCC" stroke-width="3"/>
  <ellipse cx="200" cy="240" rx="100" ry="50" fill="#F5DEB3" stroke="#D2B48C" stroke-width="2"/>
  
  <!-- Dough texture -->
  <path d="M150 220C160 210 180 215 190 225C200 235 220 240 240 230" stroke="#D2B48C" stroke-width="3" stroke-linecap="round"/>
  <path d="M160 240C170 230 190 235 200 245C210 255 230 250 250 240" stroke="#D2B48C" stroke-width="3" stroke-linecap="round"/>
  
  <!-- Hands mixing -->
  <path d="M120 180C140 160 160 150 180 160C200 170 220 160 240 140" stroke="#E8C39E" stroke-width="15" stroke-linecap="round"/>
  <path d="M260 180C240 160 220 150 200 160C180 170 160 160 140 140" stroke="#E8C39E" stroke-width="15" stroke-linecap="round"/>
  
  <!-- Flour sprinkles -->
  <circle cx="150" cy="190" r="5" fill="white"/>
  <circle cx="170" cy="180" r="4" fill="white"/>
  <circle cx="190" cy="185" r="6" fill="white"/>
  <circle cx="210" cy="175" r="3" fill="white"/>
  <circle cx="230" cy="190" r="5" fill="white"/>
  <circle cx="250" cy="180" r="4" fill="white"/>
  
  <!-- Rolling pin -->
  <rect x="280" y="140" width="80" height="20" rx="10" fill="#8B4513" transform="rotate(30 280 140)"/>
  
  <!-- Ingredients -->
  <circle cx="120" cy="120" r="25" fill="#FFF5E1" stroke="#D2B48C" stroke-width="2"/> <!-- Flour -->
  <circle cx="180" cy="100" r="15" fill="#FFEC99" stroke="#FFD700" stroke-width="2"/> <!-- Butter -->
  <ellipse cx="230" cy="110" rx="18" ry="22" fill="#FFFAFA" stroke="#EAEAEA" stroke-width="2"/> <!-- Sugar -->
  <ellipse cx="270" cy="130" rx="12" ry="15" fill="#FFF0DB" stroke="#E8C39E" stroke-width="2"/> <!-- Egg -->
</svg>  
  <!-- Bowl -->
  <ellipse cx="300" cy="280" rx="150" ry="60" fill="#E0E0E0" stroke="#BDBDBD" stroke-width="3"/>
  <path d="M180 250C180 250 220 200 300 200C380 200 420 250 420 250" stroke="#BDBDBD" stroke-width="3"/>
  
  <!-- Dough -->
  <ellipse cx="300" cy="240" rx="100" ry="40" fill="#F5DEB3" stroke="#E6C99F" stroke-width="2"/>
  <path d="M250 230C260 220 280 215 300 215C320 215 340 220 350 230" stroke="#E6C99F" stroke-width="2"/>
  
  <!-- Hand mixing -->
  <path d="M350 180C370 160 390 150 410 160C430 170 440 200 430 220" stroke="#F9D6C2" stroke-width="8" stroke-linecap="round"/>
  <path d="M430 220C425 230 415 235 405 230" stroke="#F9D6C2" stroke-width="8" stroke-linecap="round"/>
  <path d="M405 230C400 225 400 220 405 215C410 210 420 210 425 215" stroke="#F9D6C2" stroke-width="8" stroke-linecap="round"/>
  
  <!-- Flour particles -->
  <circle cx="260" cy="200" r="5" fill="white" opacity="0.8"/>
  <circle cx="280" cy="190" r="4" fill="white" opacity="0.8"/>
  <circle cx="320" cy="195" r="6" fill="white" opacity="0.8"/>
  <circle cx="340" cy="205" r="3" fill="white" opacity="0.8"/>
  <circle cx="290" cy="210" r="4" fill="white" opacity="0.8"/>
  
  <!-- Ingredients -->
  <ellipse cx="180" cy="200" rx="30" ry="15" fill="#F5F5DC" stroke="#E6E6CA" stroke-width="2"/>
  <text x="180" y="205" font-family="Arial" font-size="12" text-anchor="middle" fill="#8B4513">Мука</text>
  
  <circle cx="220" cy="170" r="20" fill="#FFF8DC" stroke="#E6DFC7" stroke-width="2"/>
  <text x="220" y="175" font-family="Arial" font-size="12" text-anchor="middle" fill="#8B4513">Яйца</text>
  
  <rect x="150" y="230" width="40" height="20" rx="5" fill="#FFFACD" stroke="#E6E1B8" stroke-width="2"/>
  <text x="170" y="245" font-family="Arial" font-size="12" text-anchor="middle" fill="#8B4513">Масло</text>
  
  <!-- Decorative elements -->
  <path d="M100 100C120 80 150 70 180 80C210 90 220 120 200 140" stroke="#F5C107" stroke-width="3" stroke-linecap="round" opacity="0.6"/>
  <path d="M500 120C480 100 450 90 420 100C390 110 380 140 400 160" stroke="#F5C107" stroke-width="3" stroke-linecap="round" opacity="0.6"/>
  
  <!-- Title -->
  <text x="300" y="50" font-family="Pacifico, cursive" font-size="28" text-anchor="middle" fill="#3C2F2F">Замешивание теста вручную</text>
  <text x="300" y="80" font-family="Montserrat, sans-serif" font-size="16" text-anchor="middle" fill="#555555">Первый шаг к идеальному печенью</text>
  
  <!-- Gradient definition -->
  <defs>
    <linearGradient id="paint0_linear" x1="0" y1="0" x2="600" y2="400" gradientUnits="userSpaceOnUse">
      <stop offset="0" stop-color="#FFF9E6"/>
      <stop offset="1" stop-color="#FCF0D0"/>
    </linearGradient>
  </defs>
</svg>
