<?xml version="1.0" encoding="UTF-8"?>
<svg width="400" height="300" viewBox="0 0 400 300" fill="none" xmlns="http://www.w3.org/2000/svg">
  <!-- u0424u043eu043d -->
  <defs>
    <linearGradient id="bgGradient" x1="0%" y1="0%" x2="100%" y2="100%">
      <stop offset="0%" stop-color="#FFF9E6" />
      <stop offset="100%" stop-color="#FFE4B5" />
    </linearGradient>
    <filter id="shadow" x="-10%" y="-10%" width="120%" height="120%">
      <feDropShadow dx="2" dy="4" stdDeviation="3" flood-opacity="0.3" />
    </filter>
    <filter id="softShadow" x="-10%" y="-10%" width="120%" height="120%">
      <feGaussianBlur in="SourceAlpha" stdDeviation="2" />
      <feOffset dx="1" dy="2" result="offsetblur" />
      <feComponentTransfer>
        <feFuncA type="linear" slope="0.3" />
      </feComponentTransfer>
      <feMerge>
        <feMergeNode />
        <feMergeNode in="SourceGraphic" />
      </feMerge>
    </filter>
    <radialGradient id="cookieGradient" cx="50%" cy="50%" r="50%" fx="45%" fy="45%">
      <stop offset="0%" stop-color="#E6C88A" />
      <stop offset="60%" stop-color="#D2B48C" />
      <stop offset="100%" stop-color="#C19A6B" />
    </radialGradient>
  </defs>
  
  <rect width="400" height="300" rx="20" fill="url(#bgGradient)" />
  
  <!-- u0421u0442u043eu043b -->
  <rect x="50" y="220" width="300" height="20" fill="#8B4513" />
  
  <!-- u0411u043eu043bu044cu0448u043eu0435 u043fu0435u0447u0435u043du044cu0435 u0432 u0440u0430u0437u0440u0435u0437u0435 -->
  <circle cx="200" cy="150" r="80" fill="url(#cookieGradient)" stroke="#8B4513" stroke-width="2" filter="url(#softShadow)" />
  
  <!-- u0422u0435u043au0441u0442u0443u0440u0430 u043fu0435u0447u0435u043du044cu044f -->
  <circle cx="200" cy="150" r="70" fill="none" stroke="#8B4513" stroke-width="0.5" stroke-dasharray="3 3" opacity="0.3" />
  
  <!-- u0420u0430u0437u0440u0435u0437 u043fu0435u0447u0435u043du044cu044f -->
  <path d="M140 150L260 150" stroke="#8B4513" stroke-width="2" />
  <path d="M140 150C140 120 170 100 200 100C230 100 260 120 260 150" fill="#D2B48C" stroke="#8B4513" stroke-width="1" />
  
  <!-- u0428u043eu043au043eu043bu0430u0434u043du044bu0435 u0447u0438u043fu0441u044b -->
  <circle cx="170" cy="130" r="8" fill="#5D4037" opacity="0.9" />
  <circle cx="210" cy="120" r="7" fill="#5D4037" opacity="0.9" />
  <circle cx="190" cy="140" r="6" fill="#5D4037" opacity="0.9" />
  <circle cx="230" cy="130" r="7" fill="#5D4037" opacity="0.9" />
  <circle cx="150" cy="120" r="5" fill="#5D4037" opacity="0.9" />
  
  <!-- u0412u043du0443u0442u0440u0435u043du043du044fu044f u0442u0435u043au0441u0442u0443u0440u0430 -->
  <ellipse cx="200" cy="125" rx="50" ry="15" fill="#E6C88A" opacity="0.5" />
  <path d="M160 150C180 140 220 140 240 150" stroke="#8B4513" stroke-width="0.5" stroke-dasharray="2 2" opacity="0.5" />
  
  <!-- u041bu0443u043fu0430 u0434u043bu044f u0434u0435u0442u0430u043bu0438u0437u0430u0446u0438u0438 -->
  <circle cx="120" cy="100" r="30" fill="white" opacity="0.2" stroke="#CCCCCC" stroke-width="2" />
  <circle cx="120" cy="100" r="25" fill="none" stroke="#CCCCCC" stroke-width="1" />
  <path d="M95 125L80 140" stroke="#CCCCCC" stroke-width="4" />
  
  <!-- u0423u0432u0435u043bu0438u0447u0435u043du043du0430u044f u0442u0435u043au0441u0442u0443u0440u0430 -->
  <circle cx="120" cy="100" r="15" fill="#D2B48C" opacity="0.8" />
  <path d="M110 95L130 105" stroke="#8B4513" stroke-width="0.5" opacity="0.8" />
  <path d="M115 90L125 110" stroke="#8B4513" stroke-width="0.5" opacity="0.8" />
  
  <!-- u041du0430u0434u043fu0438u0441u044c -->
  <rect x="50" y="30" width="300" height="40" rx="10" fill="#F5C107" filter="url(#shadow)" />
  <text x="200" y="57" font-family="Arial, sans-serif" font-size="20" font-weight="bold" fill="white" text-anchor="middle">ИДЕАЛЬНАЯ ТЕКСТУРА</text>
</svg>
