<svg width="100" height="100" viewBox="0 0 100 100" xmlns="http://www.w3.org/2000/svg">
  <defs>
    <linearGradient id="taste-gradient" x1="0%" y1="0%" x2="100%" y2="100%">
      <stop offset="0%" stop-color="#EC407A" />
      <stop offset="100%" stop-color="#D81B60" />
    </linearGradient>
  </defs>
  
  <!-- Background circle -->
  <circle cx="50" cy="50" r="48" fill="#FCE4EC" stroke="#F8BBD0" stroke-width="2" />
  
  <!-- Cookie -->
  <circle cx="50" cy="50" r="25" fill="#E6D7C3" />
  
  <!-- Cookie bite -->
  <path d="M50,25 A25,25 0 0,1 75,50 L50,50 Z" fill="#F5E9D6" />
  
  <!-- Cookie texture -->
  <g opacity="0.8">
    <circle cx="40" cy="40" r="3" fill="#D7CCC8" />
    <circle cx="60" cy="40" r="3" fill="#D7CCC8" />
    <circle cx="50" cy="60" r="3" fill="#D7CCC8" />
    <circle cx="35" cy="55" r="3" fill="#D7CCC8" />
    <circle cx="65" cy="55" r="3" fill="#D7CCC8" />
  </g>
  
  <!-- Chocolate chips -->
  <circle cx="45" cy="45" r="3" fill="#5D4037" />
  <circle cx="55" cy="35" r="3" fill="#5D4037" />
  <circle cx="40" cy="60" r="3" fill="#5D4037" />
  <circle cx="60" cy="60" r="3" fill="#5D4037" />
  
  <!-- Heart symbols for taste -->
  <path d="M30,25 A7,7 0 0,1 37,32 A7,7 0 0,1 44,25 A7,7 0 0,1 37,18 A7,7 0 0,1 30,25 Z" fill="url(#taste-gradient)" />
  <path d="M37,32 L30,39 L37,32 Z" fill="url(#taste-gradient)" />
  <path d="M37,32 L44,39 L37,32 Z" fill="url(#taste-gradient)" />
  
  <path d="M70,25 A5,5 0 0,1 75,30 A5,5 0 0,1 80,25 A5,5 0 0,1 75,20 A5,5 0 0,1 70,25 Z" fill="url(#taste-gradient)" />
  <path d="M75,30 L70,35 L75,30 Z" fill="url(#taste-gradient)" />
  <path d="M75,30 L80,35 L75,30 Z" fill="url(#taste-gradient)" />
  
  <path d="M20,40 A4,4 0 0,1 24,44 A4,4 0 0,1 28,40 A4,4 0 0,1 24,36 A4,4 0 0,1 20,40 Z" fill="url(#taste-gradient)" />
  <path d="M24,44 L20,48 L24,44 Z" fill="url(#taste-gradient)" />
  <path d="M24,44 L28,48 L24,44 Z" fill="url(#taste-gradient)" />
  
  <!-- Taste text -->
  <text x="50" y="90" font-family="Arial, sans-serif" font-size="10" font-weight="bold" text-anchor="middle" fill="#C2185B">u0412u041au0423u0421</text>
</svg>
