<svg width="30" height="30" viewBox="0 0 30 30" xmlns="http://www.w3.org/2000/svg">
  <path fill="white" d="M15,3 C8.373,3 3,8.373 3,15 C3,21.627 8.373,27 15,27 C21.627,27 27,21.627 27,15 C27,8.373 21.627,3 15,3 Z M21.707,10.459 L19.554,20.319 C19.401,20.981 19.061,21.126 18.507,20.819 L15.191,18.375 L13.588,19.912 C13.422,20.078 13.283,20.217 12.959,20.217 L13.178,16.842 L19.249,11.367 C19.5,11.148 19.194,11.026 18.86,11.245 L11.352,15.926 L8.08,14.905 C7.432,14.699 7.417,14.316 8.215,14.009 L20.778,9.066 C21.322,8.86 21.891,9.142 21.707,10.459 Z"/>
</svg>
