<?xml version="1.0" encoding="UTF-8"?>
<svg width="300" height="300" viewBox="0 0 300 300" fill="none" xmlns="http://www.w3.org/2000/svg">
  <!-- Nuts with improved appearance -->
  <!-- Nut 1 -->
  <ellipse cx="100" cy="100" rx="16" ry="11" fill="#A0522D" transform="rotate(30 100 100)" opacity="0.8"/>
  <ellipse cx="100" cy="100" rx="15" ry="10" fill="#8B4513" transform="rotate(30 100 100)"/>
  <ellipse cx="100" cy="100" rx="10" ry="6" fill="#CD853F" transform="rotate(30 100 100)" opacity="0.6"/>
  
  <!-- Nut 2 -->
  <ellipse cx="200" cy="100" rx="13" ry="9" fill="#A0522D" transform="rotate(-20 200 100)" opacity="0.8"/>
  <ellipse cx="200" cy="100" rx="12" ry="8" fill="#8B4513" transform="rotate(-20 200 100)"/>
  <ellipse cx="200" cy="100" rx="8" ry="5" fill="#CD853F" transform="rotate(-20 200 100)" opacity="0.6"/>
  
  <!-- Nut 3 -->
  <ellipse cx="150" cy="150" rx="15" ry="10" fill="#A0522D" transform="rotate(45 150 150)" opacity="0.8"/>
  <ellipse cx="150" cy="150" rx="14" ry="9" fill="#8B4513" transform="rotate(45 150 150)"/>
  <ellipse cx="150" cy="150" rx="9" ry="5" fill="#CD853F" transform="rotate(45 150 150)" opacity="0.6"/>
  
  <!-- Nut 4 -->
  <ellipse cx="120" cy="180" rx="11" ry="8" fill="#A0522D" transform="rotate(10 120 180)" opacity="0.8"/>
  <ellipse cx="120" cy="180" rx="10" ry="7" fill="#8B4513" transform="rotate(10 120 180)"/>
  <ellipse cx="120" cy="180" rx="7" ry="4" fill="#CD853F" transform="rotate(10 120 180)" opacity="0.6"/>
  
  <!-- Nut 5 -->
  <ellipse cx="180" cy="180" rx="14" ry="10" fill="#A0522D" transform="rotate(-30 180 180)" opacity="0.8"/>
  <ellipse cx="180" cy="180" rx="13" ry="9" fill="#8B4513" transform="rotate(-30 180 180)"/>
  <ellipse cx="180" cy="180" rx="8" ry="5" fill="#CD853F" transform="rotate(-30 180 180)" opacity="0.6"/>
</svg>
