<svg xmlns="http://www.w3.org/2000/svg" width="200" height="200" viewBox="0 0 200 200">
  <defs>
    <linearGradient id="whiteChocGradient" x1="0%" y1="0%" x2="100%" y2="100%">
      <stop offset="0%" stop-color="#FFFFFF" />
      <stop offset="100%" stop-color="#F5F5DC" />
    </linearGradient>
    <filter id="whiteChocShadow" x="-20%" y="-20%" width="140%" height="140%">
      <feDropShadow dx="1" dy="2" stdDeviation="2" flood-opacity="0.2" flood-color="#000" />
    </filter>
  </defs>
  
  <!-- Белый шоколад кусочки -->
  <g filter="url(#whiteChocShadow)">
    <path d="M60 70 L75 65 L80 80 L65 85 Z" fill="url(#whiteChocGradient)" />
    <path d="M60 70 L75 65 L80 80 L65 85 Z" fill="url(#whiteChocGradient)" stroke="#E0E0E0" stroke-width="1" />
  </g>
  
  <g filter="url(#whiteChocShadow)">
    <path d="M100 60 L115 65 L110 80 L95 75 Z" fill="url(#whiteChocGradient)" />
    <path d="M100 60 L115 65 L110 80 L95 75 Z" fill="url(#whiteChocGradient)" stroke="#E0E0E0" stroke-width="1" />
  </g>
  
  <g filter="url(#whiteChocShadow)">
    <path d="M130 80 L145 85 L140 100 L125 95 Z" fill="url(#whiteChocGradient)" />
    <path d="M130 80 L145 85 L140 100 L125 95 Z" fill="url(#whiteChocGradient)" stroke="#E0E0E0" stroke-width="1" />
  </g>
  
  <g filter="url(#whiteChocShadow)">
    <path d="M80 110 L95 105 L100 120 L85 125 Z" fill="url(#whiteChocGradient)" />
    <path d="M80 110 L95 105 L100 120 L85 125 Z" fill="url(#whiteChocGradient)" stroke="#E0E0E0" stroke-width="1" />
  </g>
  
  <g filter="url(#whiteChocShadow)">
    <path d="M120 115 L135 110 L140 125 L125 130 Z" fill="url(#whiteChocGradient)" />
    <path d="M120 115 L135 110 L140 125 L125 130 Z" fill="url(#whiteChocGradient)" stroke="#E0E0E0" stroke-width="1" />
  </g>
  
  <!-- Блики на шоколаде -->
  <circle cx="70" cy="75" r="3" fill="white" opacity="0.7" />
  <circle cx="105" cy="70" r="2" fill="white" opacity="0.7" />
  <circle cx="135" cy="90" r="2.5" fill="white" opacity="0.7" />
  <circle cx="90" cy="115" r="2" fill="white" opacity="0.7" />
  <circle cx="130" cy="120" r="3" fill="white" opacity="0.7" />
</svg>
