<?xml version="1.0" encoding="UTF-8"?>
<svg width="300" height="300" viewBox="0 0 300 300" fill="none" xmlns="http://www.w3.org/2000/svg">
  <!-- Chocolate chips with shadow effect -->
  <circle cx="100" cy="100" r="12" fill="#5D4037" opacity="0.7"/>
  <circle cx="100" cy="100" r="10" fill="#3E2723"/>
  <circle cx="100" cy="100" r="3" fill="#5D4037" opacity="0.5" transform="translate(2, 2)"/>
  
  <circle cx="200" cy="100" r="10" fill="#5D4037" opacity="0.7"/>
  <circle cx="200" cy="100" r="8" fill="#3E2723"/>
  <circle cx="200" cy="100" r="2" fill="#5D4037" opacity="0.5" transform="translate(2, 2)"/>
  
  <circle cx="150" cy="130" r="11" fill="#5D4037" opacity="0.7"/>
  <circle cx="150" cy="130" r="9" fill="#3E2723"/>
  <circle cx="150" cy="130" r="3" fill="#5D4037" opacity="0.5" transform="translate(2, 2)"/>
  
  <circle cx="120" cy="170" r="9" fill="#5D4037" opacity="0.7"/>
  <circle cx="120" cy="170" r="7" fill="#3E2723"/>
  <circle cx="120" cy="170" r="2" fill="#5D4037" opacity="0.5" transform="translate(2, 2)"/>
  
  <circle cx="180" cy="170" r="12" fill="#5D4037" opacity="0.7"/>
  <circle cx="180" cy="170" r="10" fill="#3E2723"/>
  <circle cx="180" cy="170" r="3" fill="#5D4037" opacity="0.5" transform="translate(2, 2)"/>
  
  <circle cx="100" cy="200" r="10" fill="#5D4037" opacity="0.7"/>
  <circle cx="100" cy="200" r="8" fill="#3E2723"/>
  <circle cx="100" cy="200" r="2" fill="#5D4037" opacity="0.5" transform="translate(2, 2)"/>
  
  <circle cx="200" cy="200" r="11" fill="#5D4037" opacity="0.7"/>
  <circle cx="200" cy="200" r="9" fill="#3E2723"/>
  <circle cx="200" cy="200" r="3" fill="#5D4037" opacity="0.5" transform="translate(2, 2)"/>
  
  <circle cx="150" cy="200" r="9" fill="#5D4037" opacity="0.7"/>
  <circle cx="150" cy="200" r="7" fill="#3E2723"/>
  <circle cx="150" cy="200" r="2" fill="#5D4037" opacity="0.5" transform="translate(2, 2)"/>
</svg>
