<svg width="30" height="30" viewBox="0 0 30 30" xmlns="http://www.w3.org/2000/svg">
  <path fill="white" d="M25.54,19.54 C25.54,19.54 27.42,21.4 27.81,22.12 C27.82,22.14 27.83,22.15 27.84,22.16 C28.01,22.44 28.05,22.66 27.96,22.83 C27.81,23.11 27.27,23.24 27.09,23.25 L23.56,23.25 C23.33,23.25 22.84,23.19 22.25,22.79 C21.79,22.47 21.33,21.95 20.89,21.44 C20.22,20.67 19.63,19.98 19.04,19.98 C18.97,19.98 18.9,19.99 18.83,20.01 C18.37,20.15 17.79,20.79 17.79,22.41 C17.79,22.9 17.4,23.25 17.12,23.25 L15.54,23.25 C15.02,23.25 12.31,23.09 9.92,20.57 C7.03,17.53 4.42,11.32 4.4,11.27 C4.25,10.9 4.59,10.7 4.96,10.7 L8.53,10.7 C8.97,10.7 9.1,10.97 9.19,11.21 C9.29,11.48 9.61,12.37 10.14,13.37 C11.04,15.07 11.57,15.77 12.01,15.77 C12.11,15.77 12.21,15.74 12.3,15.68 C12.96,15.3 12.83,12.63 12.8,12.19 C12.8,12.13 12.8,11.3 12.51,10.87 C12.3,10.56 11.93,10.44 11.71,10.39 C11.79,10.27 11.91,10.1 12.07,9.98 C12.47,9.68 13.27,9.62 14.06,9.62 L14.67,9.62 C15.52,9.63 15.76,9.69 16.09,9.77 C16.77,9.93 16.79,10.3 16.72,11.63 C16.7,12.01 16.68,12.43 16.68,12.93 C16.68,13.04 16.67,13.15 16.67,13.27 C16.65,13.96 16.62,14.74 17.15,15.05 C17.22,15.1 17.31,15.12 17.4,15.12 C17.63,15.12 18.31,15.12 19.57,13.4 C20.12,12.37 20.55,11.17 20.57,11.11 C20.62,11 20.71,10.81 20.83,10.74 C20.92,10.69 21.01,10.67 21.1,10.67 L25.06,10.67 C25.42,10.67 25.66,10.74 25.71,10.88 C25.79,11.1 25.7,11.82 24.33,13.66 L23.73,14.44 C22.5,16.06 22.5,16.16 23.74,17.31 C24.88,18.36 25.28,18.93 25.54,19.54 Z"/>
</svg>
